<?xml version="1.0" encoding="UTF-8" standalone="no"?>
<svg
   xmlns:dc="http://purl.org/dc/elements/1.1/"
   xmlns:cc="http://creativecommons.org/ns#"
   xmlns:rdf="http://www.w3.org/1999/02/22-rdf-syntax-ns#"
   xmlns:svg="http://www.w3.org/2000/svg"
   xmlns="http://www.w3.org/2000/svg"
   xmlns:sodipodi="http://sodipodi.sourceforge.net/DTD/sodipodi-0.dtd"
   xmlns:inkscape="http://www.inkscape.org/namespaces/inkscape"
   version="1.1"
   id="svg234"
   xml:space="preserve"
   width="1122.5214"
   height="631.41595"
   viewBox="0 0 1122.5214 631.41596"
   sodipodi:docname="sse_map.svg"
   inkscape:version="1.0.2 (1.0.2+r75+1)"
   inkscape:export-filename="/home/andrew/Dropbox/projects/AJH_DiveRS/sseReview/figures/sse_map.png"
   inkscape:export-xdpi="180"
   inkscape:export-ydpi="180"><metadata
     id="metadata240"><rdf:RDF><cc:Work
         rdf:about=""><dc:format>image/svg+xml</dc:format><dc:type
           rdf:resource="http://purl.org/dc/dcmitype/StillImage" /><dc:title></dc:title></cc:Work></rdf:RDF></metadata><defs
     id="defs238"><clipPath
       clipPathUnits="userSpaceOnUse"
       id="clipPath252"><path
         d="M 0,60.855 H 841 V 534.417 H 0 Z"
         id="path250" /></clipPath><clipPath
       clipPathUnits="userSpaceOnUse"
       id="clipPath262"><path
         d="M 0,0 H 288 V 192 H 0 Z"
         id="path260" /></clipPath><clipPath
       clipPathUnits="userSpaceOnUse"
       id="clipPath266"><path
         d="m 1,0.223 h 286.438 v 191.18 L 1,191.403 Z"
         id="path264" /></clipPath><clipPath
       clipPathUnits="userSpaceOnUse"
       id="clipPath432"><path
         d="M 0,0 H 101 V 250 H 0 Z"
         id="path430" /></clipPath><clipPath
       clipPathUnits="userSpaceOnUse"
       id="clipPath436"><path
         d="M 0.465,0.023 H 100.879 V 249 H 0.465 Z"
         id="path434" /></clipPath><clipPath
       clipPathUnits="userSpaceOnUse"
       id="clipPath456"><path
         d="M 0,0 H 101 V 294 H 0 Z"
         id="path454" /></clipPath><clipPath
       clipPathUnits="userSpaceOnUse"
       id="clipPath460"><path
         d="m 0.672,0.492 h 99.535 V 293.84 H 0.672 Z"
         id="path458" /></clipPath><clipPath
       clipPathUnits="userSpaceOnUse"
       id="clipPath480"><path
         d="M 0,0 H 100 V 364 H 0 Z"
         id="path478" /></clipPath><clipPath
       clipPathUnits="userSpaceOnUse"
       id="clipPath484"><path
         d="M 0.41,1 H 99.945 V 363.777 H 0.41 Z"
         id="path482" /></clipPath></defs><sodipodi:namedview
     pagecolor="#ffffff"
     bordercolor="#666666"
     borderopacity="1"
     objecttolerance="10"
     gridtolerance="10"
     guidetolerance="10"
     inkscape:pageopacity="1"
     inkscape:pageshadow="2"
     inkscape:window-width="1920"
     inkscape:window-height="1052"
     id="namedview236"
     showgrid="false"
     fit-margin-top="0"
     fit-margin-left="0"
     fit-margin-right="0"
     fit-margin-bottom="0"
     inkscape:zoom="1.0709325"
     inkscape:cx="502.36592"
     inkscape:cy="324.48356"
     inkscape:window-x="0"
     inkscape:window-y="0"
     inkscape:window-maximized="1"
     inkscape:current-layer="g242"
     inkscape:pagecheckerboard="0"
     inkscape:document-rotation="0" /><g
     id="g242"
     inkscape:groupmode="layer"
     inkscape:label="sse_map"
     transform="matrix(1.3333333,0,0,1.3333333,0,-81.139998)"><path
       d="m 289.90826,185.69389 h 139.25596 c 7.99794,0 12.79718,0 15.99588,0.96642 4.6098,1.22083 8.24324,3.86393 9.91424,7.21903 1.33582,2.32505 1.33582,5.81797 1.33582,11.63416 v 46.79995 c 0,5.81798 0,9.3091 -1.33582,11.63594 -1.671,3.35334 -5.30444,5.98936 -9.91424,7.21195 -3.1987,0.97349 -7.99794,0.97349 -15.99588,0.97349 H 289.90826 c -7.99795,0 -12.78992,0 -15.98618,-0.97349 -4.61223,-1.22259 -8.24566,-3.85861 -9.92394,-7.21195 -1.33826,-2.32684 -1.33826,-5.81796 -1.33826,-11.63594 V 205.5135 c 0,-5.81619 0,-9.30911 1.33826,-11.63416 1.67828,-3.3551 5.31171,-5.9982 9.92394,-7.21903 3.19626,-0.96642 7.98823,-0.96642 15.98618,-0.96642 z"
       style="fill:#e5c494;fill-opacity:0.400125;fill-rule:nonzero;stroke:none;stroke-width:2.0715"
       id="path57482" /><g
       id="g474"
       transform="translate(152,136)"
       style="fill:#74d854;fill-opacity:1"><g
         id="g476"
         style="fill:#74d854;fill-opacity:1" /><g
         id="g496"
         style="fill:#74d854;fill-opacity:1"><g
           clip-path="url(#clipPath480)"
           opacity="0.2441"
           id="g494"
           style="fill:#74d854;fill-opacity:1"><g
             id="g486"
             style="fill:#74d854;fill-opacity:1" /><g
             id="g492"
             style="fill:#74d854;fill-opacity:1"><g
               clip-path="url(#clipPath484)"
               id="g490"
               style="fill:#74d854;fill-opacity:1"><path
                 d="m 47.895,1.074 h 4.628 c 13.848,0 22.157,0 27.696,2.313 7.988,2.906 14.277,9.199 17.183,17.183 2.313,5.539 2.313,13.848 2.313,27.696 v 268.023 c 0,13.848 0,22.156 -2.313,27.695 -2.906,7.989 -9.195,14.278 -17.183,17.184 -5.539,2.312 -13.848,2.312 -27.696,2.312 h -4.628 c -13.848,0 -22.157,0 -27.696,-2.312 C 12.215,358.262 5.922,351.973 3.016,343.984 0.703,338.445 0.703,330.137 0.703,316.289 V 48.266 c 0,-13.848 0,-22.157 2.313,-27.696 C 5.922,12.586 12.215,6.293 20.199,3.387 25.738,1.074 34.047,1.074 47.895,1.074 Z"
                 style="fill:#74d854;fill-opacity:1;fill-rule:nonzero;stroke:none"
                 id="path488" /></g></g></g></g></g><g
       id="g256"
       transform="translate(465,279)"
       style="fill:#e78ac3;fill-opacity:1"><g
         id="g258"
         style="fill:#e78ac3;fill-opacity:1" /><g
         id="g278"
         style="fill:#e78ac3;fill-opacity:1"><g
           clip-path="url(#clipPath262)"
           opacity="0.2441"
           id="g276"
           style="fill:#e78ac3;fill-opacity:1"><g
             id="g268"
             style="fill:#e78ac3;fill-opacity:1" /><g
             id="g274"
             style="fill:#e78ac3;fill-opacity:1"><g
               clip-path="url(#clipPath266)"
               id="g272"
               style="fill:#e78ac3;fill-opacity:1"><path
                 d="m 48.246,0.367 h 191.598 c 13.847,0 22.156,0 27.695,2.313 7.988,2.906 14.277,9.195 17.184,17.179 2.312,5.539 2.312,13.848 2.312,27.696 v 96.586 c 0,13.847 0,22.16 -2.312,27.699 -2.907,7.984 -9.196,14.273 -17.184,17.18 -5.539,2.312 -13.848,2.312 -27.695,2.312 H 48.246 c -13.848,0 -22.156,0 -27.695,-2.312 C 12.566,186.113 6.277,179.824 3.371,171.84 1.059,166.301 1.059,157.988 1.059,144.141 V 47.555 c 0,-13.848 0,-22.157 2.312,-27.696 C 6.277,11.875 12.566,5.586 20.551,2.68 26.09,0.367 34.398,0.367 48.246,0.367 Z"
                 style="fill:#e78ac3;fill-opacity:1;fill-rule:nonzero;stroke:none"
                 id="path270" /></g></g></g></g></g><path
       d="m 699.656,163.195 h 5.797 c 13.848,0 22.156,0 27.695,2.313 7.989,2.906 14.278,9.195 17.184,17.183 2.313,5.539 2.313,13.848 2.313,27.696 v 154.152 c 0,13.848 0,22.156 -2.313,27.695 -2.906,7.985 -9.195,14.274 -17.184,17.18 -5.539,2.313 -13.847,2.313 -27.695,2.313 h -5.797 c -13.847,0 -22.156,0 -27.699,-2.313 -7.984,-2.906 -14.273,-9.195 -17.18,-17.18 -2.312,-5.539 -2.312,-13.847 -2.312,-27.695 V 210.387 c 0,-13.848 0,-22.157 2.312,-27.696 2.907,-7.988 9.196,-14.277 17.18,-17.183 5.543,-2.313 13.852,-2.313 27.699,-2.313 z"
       style="opacity:0.2441;fill:#fbd93c;fill-opacity:1;fill-rule:nonzero;stroke:none;stroke-opacity:1"
       id="path440" /><g
       id="g450"
       transform="translate(465,177)"
       style="fill:#6e8ce4;fill-opacity:1"><g
         id="g452"
         style="fill:#6e8ce4;fill-opacity:1" /><g
         id="g472"
         style="fill:#6e8ce4;fill-opacity:1"><g
           clip-path="url(#clipPath456)"
           opacity="0.2441"
           id="g470"
           style="fill:#6e8ce4;fill-opacity:1"><g
             id="g462"
             style="fill:#6e8ce4;fill-opacity:1" /><g
             id="g468"
             style="fill:#6e8ce4;fill-opacity:1"><g
               clip-path="url(#clipPath460)"
               id="g466"
               style="fill:#6e8ce4;fill-opacity:1"><path
                 d="m 48.172,0.922 h 4.723 c 13.847,0 22.156,0 27.695,2.312 7.984,2.907 14.277,9.196 17.183,17.184 2.313,5.539 2.313,13.848 2.313,27.695 v 198.364 c 0,13.847 0,22.156 -2.313,27.695 -2.906,7.984 -9.199,14.273 -17.183,17.18 -5.539,2.312 -13.848,2.312 -27.695,2.312 h -4.723 c -13.848,0 -22.156,0 -27.695,-2.312 C 12.492,288.445 6.203,282.156 3.297,274.172 0.984,268.633 0.984,260.324 0.984,246.477 V 48.113 c 0,-13.847 0,-22.156 2.313,-27.695 C 6.203,12.43 12.492,6.141 20.477,3.234 26.016,0.922 34.324,0.922 48.172,0.922 Z"
                 style="fill:#6e8ce4;fill-opacity:1;fill-rule:nonzero;stroke:none"
                 id="path464" /></g></g></g></g></g><g
       id="g244" /><path
       d="m 486.328,88.133 h 57.336 c 3.293,0 5.266,0 6.582,0.551 1.899,0.691 3.395,2.187 4.086,4.086 0.551,1.316 0.551,3.292 0.551,6.582 v 26.492 c 0,3.289 0,5.265 -0.551,6.582 -0.691,1.898 -2.187,3.394 -4.086,4.086 -1.316,0.55 -3.289,0.55 -6.582,0.55 h -57.336 c -3.293,0 -5.269,0 -6.586,-0.55 -1.898,-0.692 -3.394,-2.188 -4.082,-4.086 -0.551,-1.317 -0.551,-3.293 -0.551,-6.582 V 99.352 c 0,-3.29 0,-5.266 0.551,-6.582 0.688,-1.899 2.184,-3.395 4.082,-4.086 1.317,-0.551 3.293,-0.551 6.586,-0.551 z"
       style="fill:#d5d5d5;fill-opacity:1;fill-rule:nonzero;stroke:none"
       id="path280" /><text
       style="font-variant:normal;font-weight:bold;font-size:13.1545px;font-family:HelveticaNeue;-inkscape-font-specification:HelveticaNeue-Bold;writing-mode:lr-tb;fill:#000000;fill-opacity:1;fill-rule:nonzero;stroke:none"
       id="text284"
       x="495.86868"
       y="113.27928"><tspan
         x="495.86868 505.12949 508.52335 517.06061 525.5979"
         y="113.27928"
         sodipodi:role="line"
         id="tspan282">BiSSE</tspan></text><path
       d="m 674.48,180.215 h 57.332 c 3.293,0 5.27,0 6.586,0.551 1.899,0.691 3.395,2.187 4.086,4.086 0.547,1.316 0.547,3.289 0.547,6.582 v 26.488 c 0,3.293 0,5.269 -0.547,6.586 -0.691,1.898 -2.187,3.394 -4.086,4.086 -1.316,0.551 -3.293,0.551 -6.586,0.551 H 674.48 c -3.292,0 -5.269,0 -6.585,-0.551 -1.899,-0.692 -3.395,-2.188 -4.086,-4.086 -0.551,-1.317 -0.551,-3.293 -0.551,-6.586 v -26.488 c 0,-3.293 0,-5.266 0.551,-6.582 0.691,-1.899 2.187,-3.395 4.086,-4.086 1.316,-0.551 3.293,-0.551 6.585,-0.551 z"
       style="fill:#fbd93c;fill-opacity:1;fill-rule:nonzero;stroke:none"
       id="path286" /><text
       style="font-variant:normal;font-weight:bold;font-size:13.1545px;font-family:HelveticaNeue;-inkscape-font-specification:HelveticaNeue-Bold;writing-mode:lr-tb;fill:#000000;fill-opacity:1;fill-rule:nonzero;stroke:none"
       id="text290"
       x="678.42633"
       y="205.36098"><tspan
         x="678.42633 688.41064 695.9613 703.99872 712.53601 721.0733"
         y="205.36098"
         sodipodi:role="line"
         id="tspan288">GeoSSE</tspan></text><path
       d="m 174.125,158.293 h 57.336 c 3.293,0 5.269,0 6.586,0.547 1.898,0.691 3.394,2.187 4.086,4.086 0.547,1.316 0.547,3.293 0.547,6.586 V 196 c 0,3.293 0,5.266 -0.547,6.582 -0.692,1.898 -2.188,3.395 -4.086,4.086 -1.317,0.551 -3.293,0.551 -6.586,0.551 h -57.336 c -3.289,0 -5.266,0 -6.582,-0.551 -1.898,-0.691 -3.395,-2.188 -4.086,-4.086 -0.551,-1.316 -0.551,-3.289 -0.551,-6.582 v -26.488 c 0,-3.293 0,-5.27 0.551,-6.586 0.691,-1.899 2.188,-3.395 4.086,-4.086 1.316,-0.547 3.293,-0.547 6.582,-0.547 z"
       style="fill:#a6d854;fill-opacity:1;fill-rule:nonzero;stroke:none"
       id="path292" /><text
       style="font-variant:normal;font-weight:bold;font-size:13.1545px;font-family:HelveticaNeue;-inkscape-font-specification:HelveticaNeue-Bold;writing-mode:lr-tb;fill:#000000;fill-opacity:1;fill-rule:nonzero;stroke:none"
       id="text296"
       x="176.61729"
       y="183.43677"><tspan
         x="176.61729 186.85152 194.65215 202.20285 210.74013 219.27742"
         y="183.43677"
         sodipodi:role="line"
         id="tspan294">QuaSSE</tspan></text><path
       d="m 80.074,320.531 h 57.336 c 3.293,0 5.27,0 6.586,0.551 1.899,0.688 3.395,2.184 4.086,4.082 0.547,1.316 0.547,3.293 0.547,6.586 v 26.488 c 0,3.293 0,5.27 -0.547,6.586 -0.691,1.899 -2.187,3.395 -4.086,4.082 -1.316,0.551 -3.293,0.551 -6.586,0.551 H 80.074 c -3.289,0 -5.265,0 -6.582,-0.551 -1.898,-0.687 -3.394,-2.183 -4.086,-4.082 -0.551,-1.316 -0.551,-3.293 -0.551,-6.586 V 331.75 c 0,-3.293 0,-5.27 0.551,-6.586 0.692,-1.898 2.188,-3.394 4.086,-4.082 1.317,-0.551 3.293,-0.551 6.582,-0.551 z"
       style="fill:#f38c61;fill-opacity:1;fill-rule:nonzero;stroke:none"
       id="path298" /><text
       style="font-variant:normal;font-weight:bold;font-size:13.1545px;font-family:HelveticaNeue;-inkscape-font-specification:HelveticaNeue-Bold;writing-mode:lr-tb;fill:#000000;fill-opacity:1;fill-rule:nonzero;stroke:none"
       id="text302"
       x="90.053093"
       y="345.67593"><tspan
         x="90.053093 97.853722 101.24759 109.78488 118.32217"
         y="345.67593"
         sodipodi:role="line"
         id="tspan300">FiSSE</tspan></text><path
       d="m 377.33791,197.16172 h 57.336 c 3.289,0 5.266,0 6.582,0.547 1.899,0.691 3.395,2.187 4.086,4.086 0.551,1.316 0.551,3.293 0.551,6.585 v 26.489 c 0,3.293 0,5.269 -0.551,6.586 -0.691,1.898 -2.187,3.39 -4.086,4.082 -1.316,0.551 -3.293,0.551 -6.582,0.551 h -57.336 c -3.293,0 -5.269,0 -6.586,-0.551 -1.898,-0.692 -3.394,-2.184 -4.086,-4.082 -0.547,-1.317 -0.547,-3.293 -0.547,-6.586 v -26.489 c 0,-3.292 0,-5.269 0.547,-6.585 0.692,-1.899 2.188,-3.395 4.086,-4.086 1.317,-0.547 3.293,-0.547 6.586,-0.547 z"
       style="fill:#e5c494;fill-opacity:1;fill-rule:nonzero;stroke:none"
       id="path304" /><text
       style="font-variant:normal;font-weight:bold;font-size:13.1545px;font-family:HelveticaNeue;-inkscape-font-specification:HelveticaNeue-Bold;writing-mode:lr-tb;fill:#000000;fill-opacity:1;fill-rule:nonzero;stroke:none"
       id="text308"
       x="382.85916"
       y="222.30585"><tspan
         x="382.85916 392.60666 396.00052 403.55121 412.0885 420.62579"
         y="222.30585"
         sodipodi:role="line"
         id="tspan306">ClaSSE</tspan></text><path
       d="m 283.14291,197.16172 h 57.336 c 3.293,0 5.269,0 6.586,0.547 1.898,0.691 3.394,2.187 4.082,4.086 0.55,1.316 0.55,3.293 0.55,6.585 v 26.489 c 0,3.293 0,5.269 -0.55,6.586 -0.688,1.898 -2.184,3.39 -4.082,4.082 -1.317,0.551 -3.293,0.551 -6.586,0.551 h -57.336 c -3.293,0 -5.266,0 -6.582,-0.551 -1.899,-0.692 -3.395,-2.184 -4.086,-4.082 -0.551,-1.317 -0.551,-3.293 -0.551,-6.586 v -26.489 c 0,-3.292 0,-5.269 0.551,-6.585 0.691,-1.899 2.187,-3.395 4.086,-4.086 1.316,-0.547 3.289,-0.547 6.582,-0.547 z"
       style="fill:#e5c494;fill-opacity:1;fill-rule:nonzero;stroke:none"
       id="path310" /><text
       style="font-variant:normal;font-weight:bold;font-size:11.8391px;font-family:HelveticaNeue;-inkscape-font-specification:HelveticaNeue-Bold;writing-mode:lr-tb;fill:#000000;fill-opacity:1;fill-rule:nonzero;stroke:none"
       id="text314"
       x="278.92255"
       y="221.73341"><tspan
         x="278.92255 287.25726 290.31174 297.9953 305.67886 313.35059 318.16907 325.18967 331.98529 338.34286"
         y="221.73341"
         sodipodi:role="line"
         id="tspan312">BiSSE-ness</tspan></text><path
       d="m 486.422,196.762 h 57.336 c 3.289,0 5.265,0 6.582,0.547 1.898,0.691 3.394,2.187 4.086,4.086 0.551,1.316 0.551,3.293 0.551,6.585 v 26.489 c 0,3.293 0,5.269 -0.551,6.586 -0.692,1.898 -2.188,3.39 -4.086,4.082 -1.317,0.551 -3.293,0.551 -6.582,0.551 h -57.336 c -3.293,0 -5.27,0 -6.586,-0.551 -1.898,-0.692 -3.395,-2.184 -4.086,-4.082 -0.547,-1.317 -0.547,-3.293 -0.547,-6.586 V 207.98 c 0,-3.292 0,-5.269 0.547,-6.585 0.691,-1.899 2.188,-3.395 4.086,-4.086 1.316,-0.547 3.293,-0.547 6.586,-0.547 z"
       style="fill:#8e9fcb;fill-opacity:1;fill-rule:nonzero;stroke:none"
       id="path316" /><text
       style="font-variant:normal;font-weight:bold;font-size:13.1545px;font-family:HelveticaNeue;-inkscape-font-specification:HelveticaNeue-Bold;writing-mode:lr-tb;fill:#000000;fill-opacity:1;fill-rule:nonzero;stroke:none"
       id="text320"
       x="492.42307"
       y="221.90613"><tspan
         x="492.42307 504.35425 512.15485 520.69214 529.22943"
         y="221.90613"
         sodipodi:role="line"
         id="tspan318">MuSSE</tspan></text><path
       d="m 580.379,293.812 h 57.336 c 3.293,0 5.265,0 6.582,0.551 1.898,0.692 3.394,2.188 4.086,4.086 0.551,1.317 0.551,3.293 0.551,6.582 v 26.492 c 0,3.289 0,5.266 -0.551,6.582 -0.692,1.899 -2.188,3.395 -4.086,4.086 -1.317,0.551 -3.289,0.551 -6.582,0.551 h -57.336 c -3.293,0 -5.27,0 -6.586,-0.551 -1.898,-0.691 -3.395,-2.187 -4.082,-4.086 -0.551,-1.316 -0.551,-3.293 -0.551,-6.582 v -26.492 c 0,-3.289 0,-5.265 0.551,-6.582 0.687,-1.898 2.184,-3.394 4.082,-4.086 1.316,-0.551 3.293,-0.551 6.586,-0.551 z"
       style="fill:#e78ac3;fill-opacity:1;fill-rule:nonzero;stroke:none"
       id="path322" /><text
       style="font-variant:normal;font-weight:bold;font-size:11.4006px;font-family:HelveticaNeue;-inkscape-font-specification:HelveticaNeue-Bold;writing-mode:lr-tb;fill:#000000;fill-opacity:1;fill-rule:nonzero;stroke:none"
       id="text326"
       x="576.07843"
       y="318.26935"><tspan
         x="576.07843 584.52625 587.46759 594.86658 602.26556 609.65314 612.82251 619.6629 622.83221 631.28009 634.64325"
         y="318.26935"
         sodipodi:role="line"
         id="tspan324">HiSSE + CID</tspan></text><path
       d="m 674.48,347.891 h 57.332 c 3.293,0 5.27,0 6.586,0.55 1.899,0.692 3.395,2.188 4.086,4.086 0.547,1.317 0.547,3.293 0.547,6.582 v 26.493 c 0,3.289 0,5.265 -0.547,6.582 -0.691,1.898 -2.187,3.394 -4.086,4.086 -1.316,0.55 -3.293,0.55 -6.586,0.55 H 674.48 c -3.292,0 -5.269,0 -6.585,-0.55 -1.899,-0.692 -3.395,-2.188 -4.086,-4.086 -0.551,-1.317 -0.551,-3.293 -0.551,-6.582 v -26.493 c 0,-3.289 0,-5.265 0.551,-6.582 0.691,-1.898 2.187,-3.394 4.086,-4.086 1.316,-0.55 3.293,-0.55 6.585,-0.55 z"
       style="fill:#fbd93c;fill-opacity:1;fill-rule:nonzero;stroke:none"
       id="path328" /><text
       style="font-variant:normal;font-weight:bold;font-size:11.8391px;font-family:HelveticaNeue;-inkscape-font-specification:HelveticaNeue-Bold;writing-mode:lr-tb;fill:#000000;fill-opacity:1;fill-rule:nonzero;stroke:none"
       id="text332"
       x="671.79645"
       y="372.4646"><tspan
         x="671.79645 680.78229 687.57794 694.81165 699.63013 708.40289 711.45734 719.14093 726.82446"
         y="372.4646"
         sodipodi:role="line"
         id="tspan330">Geo-HiSSE</tspan></text><path
       d="m 486.328,405.945 h 57.336 c 3.293,0 5.266,0 6.582,0.551 1.899,0.692 3.395,2.188 4.086,4.086 0.551,1.316 0.551,3.293 0.551,6.582 v 26.492 c 0,3.289 0,5.266 -0.551,6.582 -0.691,1.899 -2.187,3.395 -4.086,4.086 -1.316,0.551 -3.289,0.551 -6.582,0.551 h -57.336 c -3.293,0 -5.269,0 -6.586,-0.551 -1.898,-0.691 -3.394,-2.187 -4.082,-4.086 -0.551,-1.316 -0.551,-3.293 -0.551,-6.582 v -26.492 c 0,-3.289 0,-5.266 0.551,-6.582 0.688,-1.898 2.184,-3.394 4.082,-4.086 1.317,-0.551 3.293,-0.551 6.586,-0.551 z"
       style="fill:#8e9fcb;fill-opacity:1;fill-rule:nonzero;stroke:none"
       id="path334" /><text
       style="font-variant:normal;font-weight:bold;font-size:13.1545px;font-family:HelveticaNeue;-inkscape-font-specification:HelveticaNeue-Bold;writing-mode:lr-tb;fill:#000000;fill-opacity:1;fill-rule:nonzero;stroke:none"
       id="text338"
       x="490.37668"
       y="431.09207"><tspan
         x="490.37668 498.91397 506.46466 514.01538 522.55267 531.0899"
         y="431.09207"
         sodipodi:role="line"
         id="tspan336">SecSSE</tspan></text><path
       d="m 486.328,347.891 h 57.336 c 3.293,0 5.266,0 6.582,0.55 1.899,0.692 3.395,2.188 4.086,4.086 0.551,1.317 0.551,3.293 0.551,6.582 v 26.493 c 0,3.289 0,5.265 -0.551,6.582 -0.691,1.898 -2.187,3.394 -4.086,4.086 -1.316,0.55 -3.289,0.55 -6.582,0.55 h -57.336 c -3.293,0 -5.269,0 -6.586,-0.55 -1.898,-0.692 -3.394,-2.188 -4.082,-4.086 -0.551,-1.317 -0.551,-3.293 -0.551,-6.582 v -26.493 c 0,-3.289 0,-5.265 0.551,-6.582 0.688,-1.898 2.184,-3.394 4.082,-4.086 1.317,-0.55 3.293,-0.55 6.586,-0.55 z"
       style="fill:#8e9fcb;fill-opacity:1;fill-rule:nonzero;stroke:none"
       id="path340" /><text
       style="font-variant:normal;font-weight:bold;font-size:13.1545px;font-family:HelveticaNeue;-inkscape-font-specification:HelveticaNeue-Bold;writing-mode:lr-tb;fill:#000000;fill-opacity:1;fill-rule:nonzero;stroke:none"
       id="text344"
       x="483.08249"
       y="373.03705"><tspan
         x="483.08249 495.01364 502.81427 508.16818 517.91571 521.30957 529.84686 538.38416"
         y="373.03705"
         sodipodi:role="line"
         id="tspan342">Mu-HiSSE</tspan></text><path
       d="m 377.277,347.891 h 57.336 c 3.293,0 5.266,0 6.582,0.55 1.899,0.692 3.395,2.188 4.086,4.086 0.551,1.317 0.551,3.293 0.551,6.582 v 26.493 c 0,3.289 0,5.265 -0.551,6.582 -0.691,1.898 -2.187,3.394 -4.086,4.086 -1.316,0.55 -3.289,0.55 -6.582,0.55 h -57.336 c -3.293,0 -5.269,0 -6.586,-0.55 -1.898,-0.692 -3.39,-2.188 -4.082,-4.086 -0.55,-1.317 -0.55,-3.293 -0.55,-6.582 v -26.493 c 0,-3.289 0,-5.265 0.55,-6.582 0.692,-1.898 2.184,-3.394 4.082,-4.086 1.317,-0.55 3.293,-0.55 6.586,-0.55 z"
       style="fill:#66c2a5;fill-opacity:1;fill-rule:nonzero;stroke:none"
       id="path346" /><text
       style="font-variant:normal;font-weight:bold;font-size:11.8391px;font-family:HelveticaNeue;-inkscape-font-specification:HelveticaNeue-Bold;writing-mode:lr-tb;fill:#000000;fill-opacity:1;fill-rule:nonzero;stroke:none"
       id="text350"
       x="371.73593"
       y="372.4646"><tspan
         x="371.73593 380.50867 387.52924 391.92154 399.15521 409.88141 417.11508 424.79865 432.48221"
         y="372.4646"
         sodipodi:role="line"
         id="tspan348">ChromoSSE</tspan></text><path
       d="m 174.125,430.91 h 57.336 c 3.293,0 5.269,0 6.586,0.551 1.898,0.691 3.394,2.187 4.086,4.086 0.547,1.316 0.547,3.293 0.547,6.582 v 26.492 c 0,3.289 0,5.266 -0.547,6.582 -0.692,1.899 -2.188,3.395 -4.086,4.086 -1.317,0.551 -3.293,0.551 -6.586,0.551 h -57.336 c -3.289,0 -5.266,0 -6.582,-0.551 -1.898,-0.691 -3.395,-2.187 -4.086,-4.086 -0.551,-1.316 -0.551,-3.293 -0.551,-6.582 v -26.492 c 0,-3.289 0,-5.266 0.551,-6.582 0.691,-1.899 2.188,-3.395 4.086,-4.086 1.316,-0.551 3.293,-0.551 6.582,-0.551 z"
       style="fill:#a6d854;fill-opacity:1;fill-rule:nonzero;stroke:none"
       id="path352" /><text
       style="font-variant:normal;font-weight:bold;font-size:8.76968px;font-family:HelveticaNeue;-inkscape-font-specification:HelveticaNeue-Bold;writing-mode:lr-tb;fill:#000000;fill-opacity:1;fill-rule:nonzero;stroke:none"
       id="text356"
       x="172.0388"
       y="444.93097"><tspan
         x="172.0388 177.39709 179.65967 187.605 192.63879 196.20807 200.91739 204.00432 207.41573 212.44952 215.53645"
         y="444.93097"
         sodipodi:role="line"
         id="tspan354">Time-strati</tspan></text><text
       style="font-variant:normal;font-weight:bold;font-size:8.76968px;font-family:HelveticaNeue;-inkscape-font-specification:HelveticaNeue-Bold;writing-mode:lr-tb;fill:#000000;fill-opacity:1;fill-rule:nonzero;stroke:none"
       id="text360"
       x="217.79903"
       y="444.93097"><tspan
         x="217.79903"
         y="444.93097"
         id="tspan358">ﬁ</tspan></text><text
       style="font-variant:normal;font-weight:bold;font-size:8.76968px;font-family:HelveticaNeue;-inkscape-font-specification:HelveticaNeue-Bold;writing-mode:lr-tb;fill:#000000;fill-opacity:1;fill-rule:nonzero;stroke:none"
       id="text364"
       x="223.1573"
       y="444.93097"><tspan
         x="223.1573 228.1911 233.54938"
         y="444.93097"
         sodipodi:role="line"
         id="tspan362">ed </tspan></text><text
       style="font-variant:normal;font-weight:bold;font-size:13.1545px;font-family:HelveticaNeue;-inkscape-font-specification:HelveticaNeue-Bold;writing-mode:lr-tb;fill:#000000;fill-opacity:1;fill-rule:nonzero;stroke:none"
       id="text368"
       x="177.20197"
       y="460.07617"><tspan
         x="177.20197 187.43619 195.23682 202.78752 211.3248 219.86209"
         y="460.07617"
         sodipodi:role="line"
         id="tspan366">QuaSSE</tspan></text><text
       style="font-variant:normal;font-weight:bold;font-size:5.70029px;font-family:HelveticaNeue;-inkscape-font-specification:HelveticaNeue-Bold;writing-mode:lr-tb;fill:#000000;fill-opacity:1;fill-rule:nonzero;stroke:none"
       id="text382"
       x="575.00104"
       y="328.82822"><tspan
         x="575.00104 579.01404 582.28601 585.55798 588.93829 590.40894 591.87964 595.15161 598.53186 600.11658 604.02124 605.60596 610.04077 611.62543 616.79559 620.06757 623.33954 625.55695 628.82892 630.41364 633.58301 636.75238 639.92169"
         y="328.82822"
         sodipodi:role="line"
         id="tspan380">Beaulieu &amp; O’Meara 2016</tspan></text><text
       style="font-variant:normal;font-weight:bold;font-size:6.57726px;font-family:HelveticaNeue;-inkscape-font-specification:HelveticaNeue-Bold;writing-mode:lr-tb;fill:#000000;fill-opacity:1;fill-rule:nonzero;stroke:none"
       id="text386"
       x="373.52271"
       y="231.97157"><tspan
         x="373.52271 378.51486 382.53357 384.2305 388.24921 392.26791 396.04327 398.41766 402.43637 404.26486 408.77026 410.59875 412.53906 416.55777 418.2547 422.03003 423.85852 427.51547 431.17242 434.82941"
         y="231.97157"
         sodipodi:role="line"
         id="tspan384">Goldberg &amp; Igic 2012</tspan></text><text
       style="font-variant:normal;font-weight:bold;font-size:4.82333px;font-family:HelveticaNeue;-inkscape-font-specification:HelveticaNeue-Bold;writing-mode:lr-tb;fill:#000000;fill-opacity:1;fill-rule:nonzero;stroke:none"
       id="text390"
       x="279.37946"
       y="231.2814"><tspan
         x="279.37946 283.75421 286.5228 289.46985 292.33008 295.19031 297.78046 300.72751 303.58774 305.55081 308.41104 311.35809 313.14755 316.0946 317.43549 320.73947 322.08035 325.83292 327.53073 329.22855 332.1756 333.51648 336.19824 338.88 341.56177"
         y="231.2814"
         sodipodi:role="line"
         id="tspan388">Magnuson-Ford &amp; Otto 2012</tspan></text><text
       style="font-variant:normal;font-weight:bold;font-size:5.70029px;font-family:HelveticaNeue;-inkscape-font-specification:HelveticaNeue-Bold;writing-mode:lr-tb;fill:#000000;fill-opacity:1;fill-rule:nonzero;stroke:none"
       id="text394"
       x="480.74231"
       y="439.70312"><tspan
         x="480.74231 484.96622 488.23819 490.4556 492.5704 495.84238 498.05978 501.33176 503.65179 507.55649 509.02716 512.0882 513.5589 516.93915 520.21112 521.79584 525.06781 527.07428 528.659 531.93097 533.40161 534.98633 536.57098 539.74036 542.90973 546.0791"
         y="439.70312"
         sodipodi:role="line"
         id="tspan392">Herrera-Alsina et al. 2019</tspan></text><text
       style="font-variant:normal;font-weight:bold;font-size:6.57726px;font-family:HelveticaNeue;-inkscape-font-specification:HelveticaNeue-Bold;writing-mode:lr-tb;fill:#000000;fill-opacity:1;fill-rule:nonzero;stroke:none"
       id="text398"
       x="674.04236"
       y="381.88361"><tspan
         x="674.04236 678.91614 682.69147 686.46686 688.78204 692.55737 696.4577 700.47638 702.30487 706.08026 708.39545 710.22394 713.99927 715.69617 717.52466 719.35315 723.01013 726.66705 730.32404"
         y="381.88361"
         sodipodi:role="line"
         id="tspan396">Caetano et al. 2018</tspan></text><text
       style="font-variant:normal;font-weight:bold;font-size:6.13878px;font-family:HelveticaNeue;-inkscape-font-specification:HelveticaNeue-Bold;writing-mode:lr-tb;fill:#000000;fill-opacity:1;fill-rule:nonzero;stroke:none"
       id="text402"
       x="372.22769"
       y="381.76587"><tspan
         x="372.22769 375.86798 378.14548 381.66913 384.85516 390.41687 393.94055 397.58084 399.28741 403.49249 405.19907 409.74789 413.49869 417.13901 420.7793 424.30295 426.00952 429.4227 432.83585 436.24902"
         y="381.76587"
         sodipodi:role="line"
         id="tspan400">Freyman &amp; Höhna 2018</tspan></text><text
       style="font-variant:normal;font-weight:bold;font-size:5.26181px;font-family:HelveticaNeue;-inkscape-font-specification:HelveticaNeue-Bold;writing-mode:lr-tb;fill:#000000;fill-opacity:1;fill-rule:nonzero;stroke:none"
       id="text406"
       x="76.417587"
       y="355.57309"><tspan
         x="76.417587 80.216614 83.2369 86.451874 89.666832 92.492416 95.512703 98.243591 99.70636 103.3107 104.77348 108.7672 111.98216 113.33972 116.55469 119.76965 122.78993 124.68944 127.9044 129.36719 132.29276 135.21832 138.14389"
         y="355.57309"
         sodipodi:role="line"
         id="tspan404">Rabosky &amp; Goldberg 2017</tspan></text><g
       id="g414"
       transform="rotate(90)"
       style="stroke-width:3.75000009;stroke-miterlimit:4;stroke-dasharray:none"><path
         d="M 123.492,-50.281 H 464.457"
         style="fill:none;stroke:#000000;stroke-width:3.75000009;stroke-linecap:butt;stroke-linejoin:miter;stroke-miterlimit:4;stroke-dasharray:none;stroke-opacity:1"
         id="path416" /></g><path
       d="m 44.834485,464.3968 5.403438,9.17794 5.402126,-9.17794 z"
       style="fill:#000000;fill-opacity:1;fill-rule:nonzero;stroke:none;stroke-width:0.402683"
       id="path418" /><text
       transform="rotate(-90)"
       style="font-variant:normal;font-weight:bold;font-size:13.1545px;font-family:HelveticaNeue;-inkscape-font-specification:HelveticaNeue-Bold;writing-mode:lr-tb;fill:#000000;fill-opacity:1;fill-rule:nonzero;stroke:none"
       id="text424"
       x="-313.08777"
       y="40.375759"><tspan
         x="-313.08777 -305.05035 -301.65649 -289.73849"
         y="40.375759"
         sodipodi:role="line"
         id="tspan422">Time</tspan></text><g
       id="g428"
       style="fill:#fbd93c;fill-opacity:1;stroke:none;stroke-opacity:1"
       transform="translate(652,163)" /><g
       id="g438"
       style="opacity:0.2441;fill:#fbd93c;fill-opacity:1;stroke:none;stroke-opacity:1"
       transform="translate(652,163)" /><text
       style="font-variant:normal;font-weight:bold;font-size:13.1545px;font-family:HelveticaNeue;-inkscape-font-specification:HelveticaNeue-Bold;writing-mode:lr-tb;fill:#e78ac3;fill-opacity:1;fill-rule:nonzero;stroke:none"
       id="text500"
       x="641.10785"
       y="448.45633"><tspan
         x="641.10785 650.85535 654.24921 662.28662 670.32404 677.87476 685.67535 689.33234 696.3963 701.02667 708.57739 713.20776 720.75848"
         y="448.45633"
         sodipodi:role="line"
         id="tspan498">Hidden states</tspan></text><text
       style="font-variant:normal;font-weight:bold;font-size:13.1545px;font-family:HelveticaNeue;-inkscape-font-specification:HelveticaNeue-Bold;writing-mode:lr-tb;fill:#a6d854;fill-opacity:1;fill-rule:nonzero;stroke:none"
       id="text506"
       x="164.20599"
       y="315.23242"><tspan
         x="164.20599 174.44022 182.24084 189.79155 197.59218 202.22258 205.61644 210.24684 217.79755 222.42793 225.82181 232.66214 240.21286"
         y="315.23242"
         sodipodi:role="line"
         id="tspan502">Quantitative </tspan><tspan
         x="186.0162 190.64659 195.7637 203.31441 206.70827 211.33867"
         y="331.45633"
         sodipodi:role="line"
         id="tspan504">traits</tspan></text><text
       style="font-variant:normal;font-weight:bold;font-size:13.1545px;font-family:HelveticaNeue;-inkscape-font-specification:HelveticaNeue-Bold;writing-mode:lr-tb;fill:#fbd93c;fill-opacity:1;fill-rule:nonzero;stroke:none;stroke-opacity:1"
       id="text510"
       x="669.54047"
       y="259.32068"><tspan
         x="669.54047 679.52472 687.07544 695.11285 703.15027 708.2674 715.81812 723.85553 731.65613"
         y="259.32068"
         sodipodi:role="line"
         id="tspan508">Geography</tspan></text><text
       style="font-variant:normal;font-weight:bold;font-size:13.1545px;font-family:HelveticaNeue;-inkscape-font-specification:HelveticaNeue-Bold;writing-mode:lr-tb;fill:#8e9fcb;fill-opacity:1;fill-rule:nonzero;stroke:none"
       id="text514"
       x="481.03036"
       y="267.59326"><tspan
         x="481.03036 492.96155 500.76218 504.15604 508.78644 512.1803 517.53418 524.59821 529.22858 536.7793 541.40967"
         y="267.59326"
         sodipodi:role="line"
         id="tspan512">Multi-state</tspan></text><text
       xml:space="preserve"
       style="font-size:6px;line-height:1.25;font-family:sans-serif;letter-spacing:0px;stroke-width:0.75"
       x="169.11905"
       y="471.06403"
       id="text3583"><tspan
         sodipodi:role="line"
         id="tspan3581"
         style="font-style:normal;font-variant:normal;font-weight:bold;font-stretch:normal;font-size:6px;font-family:HelveticaNeue;-inkscape-font-specification:'HelveticaNeue Bold';stroke-width:0.75"
         x="169.11905"
         y="471.06403">Verboom et al. 2020</tspan></text><text
       xml:space="preserve"
       style="font-size:6px;line-height:1.25;font-family:sans-serif;letter-spacing:0px;stroke-width:0.75"
       x="486.41696"
       y="384.2128"
       id="text12111"><tspan
         sodipodi:role="line"
         id="tspan12109"
         style="font-style:normal;font-variant:normal;font-weight:bold;font-stretch:normal;font-size:6px;font-family:HelveticaNeue;-inkscape-font-specification:'HelveticaNeue Bold';stroke-width:0.75"
         x="486.41696"
         y="384.2128">Nakov et al. 2018</tspan></text><text
       xml:space="preserve"
       style="font-size:6px;line-height:1.25;font-family:sans-serif;letter-spacing:0px;stroke-width:0.75"
       x="181.02977"
       y="193.56099"
       id="text17389"><tspan
         sodipodi:role="line"
         id="tspan17387"
         style="font-style:normal;font-variant:normal;font-weight:bold;font-stretch:normal;font-size:6px;font-family:HelveticaNeue;-inkscape-font-specification:'HelveticaNeue Bold';stroke-width:0.75"
         x="181.02977"
         y="193.56099">Fitzjohn 2010</tspan></text><text
       xml:space="preserve"
       style="font-size:6px;line-height:1.25;font-family:sans-serif;letter-spacing:0px;stroke-width:0.75"
       x="492.52902"
       y="232.92879"
       id="text19389"><tspan
         sodipodi:role="line"
         id="tspan19387"
         style="font-style:normal;font-variant:normal;font-weight:bold;font-stretch:normal;font-size:6px;font-family:HelveticaNeue;-inkscape-font-specification:'HelveticaNeue Bold';stroke-width:0.75"
         x="492.52902"
         y="232.92879">Fitzjohn 2012</tspan></text><text
       xml:space="preserve"
       style="font-size:6px;line-height:1.25;font-family:sans-serif;letter-spacing:0px;stroke-width:0.75"
       x="669.80042"
       y="216.19217"
       id="text24913"><tspan
         sodipodi:role="line"
         id="tspan24911"
         style="font-style:normal;font-variant:normal;font-weight:bold;font-stretch:normal;font-size:6px;font-family:HelveticaNeue;-inkscape-font-specification:'HelveticaNeue Bold';stroke-width:0.75"
         x="669.80042"
         y="216.19217">Goldberg et al. 2011</tspan></text><text
       xml:space="preserve"
       style="font-size:6px;line-height:1.25;font-family:sans-serif;letter-spacing:0px;stroke-width:0.75"
       x="481.40817"
       y="123.49448"
       id="text28197"><tspan
         sodipodi:role="line"
         id="tspan28195"
         style="font-style:normal;font-variant:normal;font-weight:bold;font-stretch:normal;font-size:6px;font-family:HelveticaNeue;-inkscape-font-specification:'HelveticaNeue Bold';stroke-width:0.75"
         x="481.40817"
         y="123.49448">Maddison et al. 2007</tspan></text><text
       style="font-variant:normal;font-weight:bold;font-size:13.1545px;font-family:HelveticaNeue;-inkscape-font-specification:HelveticaNeue-Bold;writing-mode:lr-tb;fill:#e5c494;fill-opacity:1;fill-rule:nonzero;stroke:none"
       id="text58710"
       x="313.302"
       y="262.17471"><tspan
         sodipodi:role="line"
         id="tspan58708"
         x="313.302"
         y="262.17471">Cladogenetic</tspan></text></g></svg>
